<svg t="1578926078858" class="icon" viewBox="0 0 1024 1024" version="1.1" xmlns="http://www.w3.org/2000/svg" p-id="21274" width="200" height="200"><path d="M785.1 531.4c-32.4 0-58.6-26.2-58.6-58.6V414c0-128-92.3-232.1-205.7-232.1h-19.1C388.2 182 295.9 286.1 295.9 414v58.8c0 32.4-26.3 58.6-58.6 58.6s-58.6-26.2-58.6-58.6V414c0-192.6 144.9-349.3 323-349.3h19.1c178.1 0 323 156.7 323 349.3v58.8c-0.1 32.4-26.3 58.6-58.7 58.6z" fill="#52A9FF" p-id="21275"></path><path d="M284.8 866.2h-23.7c-109.1 0-197.9-88.8-197.9-197.9v-48.9c0-109.1 88.8-197.9 197.9-197.9h23.7c109.1 0 197.9 88.8 197.9 197.9v48.9c0 109.1-88.7 197.9-197.9 197.9z m-23.7-327.4c-44.5 0-80.6 36.2-80.6 80.6v48.9c0 44.5 36.2 80.6 80.6 80.6h23.7c44.5 0 80.6-36.2 80.6-80.6v-48.9c0-44.5-36.2-80.6-80.6-80.6h-23.7zM759.4 423.1h-23.8c-109.1 0-197.9 88.8-197.9 197.9v48.9c0 100.3 75.1 183.5 172 196.2v37c0 27.7 22.7 50.4 50.4 50.4s50.4-22.7 50.4-50.4v-42c84.4-22.6 146.8-99.7 146.8-191.2V621c0-109.2-88.8-197.9-197.9-197.9z m80.7 246.8c0 44.5-36.2 80.6-80.6 80.6h-23.8c-44.4 0-80.6-36.2-80.6-80.6V621c0-44.5 36.2-80.6 80.6-80.6h23.8c44.4 0 80.6 36.2 80.6 80.6v48.9z" fill="#00EFEF" p-id="21276"></path></svg>