<svg t="1578922608681" class="icon" viewBox="0 0 1024 1024" version="1.1" xmlns="http://www.w3.org/2000/svg" p-id="10605" width="200" height="200"><path d="M0 0h1024v1024H0z" fill="#27BF84" p-id="10606"></path><path d="M256.8704 278.784a15.4624 15.4624 0 0 1 8.192-8.7296l267.008-119.2704a16.2048 16.2048 0 0 1 21.0688 7.168c3.7632 7.424 0.3072 16.384-7.552 19.968l-222.592 99.4048h429.0048c44.16 0 80 35.84 80 80v352c0 44.16-35.84 80-80 80h-480A80.0256 80.0256 0 0 1 192 709.3248v-352a80.0512 80.0512 0 0 1 64.8704-78.5664z m144.896 160.3328a90.88 90.88 0 0 0-90.6496 90.6496 90.88 90.88 0 0 0 90.6496 90.6752 90.88 90.88 0 0 0 90.6752-90.6752 90.88 90.88 0 0 0-90.6752-90.6496z m0 32a58.88 58.88 0 0 1 58.6752 58.6496 58.88 58.88 0 0 1-58.6752 58.6752 58.88 58.88 0 0 1-58.6496-58.6752 58.88 58.88 0 0 1 58.6496-58.6496z m190.2336-23.1168a16 16 0 1 0 0 32h138.6752a16 16 0 0 0 0-32h-138.6752z m0 128a16 16 0 1 0 0 32h138.6752a16 16 0 0 0 0-32h-138.6752z" fill="#FFFFFF" p-id="10607"></path></svg>